<svg xmlns="http://www.w3.org/2000/svg" viewBox="0 -0.5 33 17" shape-rendering="crispEdges">
<metadata>Made with Pixels to Svg https://codepen.io/shshaw/pen/XbxvNj</metadata>
<path stroke="#000000" d="M0 0h33M0 1h1M32 1h1M0 2h1M32 2h1M0 3h1M5 3h1M7 3h2M11 3h2M15 3h2M19 3h1M21 3h1M32 3h1M0 4h1M5 4h1M7 4h2M11 4h1M13 4h1M15 4h1M17 4h1M20 4h1M29 4h1M32 4h1M0 5h1M5 5h1M7 5h1M9 5h1M11 5h1M13 5h1M15 5h1M17 5h1M20 5h1M29 5h1M32 5h1M0 6h1M5 6h1M7 6h3M12 6h2M15 6h2M20 6h1M28 6h2M32 6h1M0 7h1M4 7h2M28 7h2M32 7h1M0 8h1M2 8h1M4 8h3M17 8h10M28 8h3M32 8h1M0 9h1M4 9h2M28 9h2M32 9h1M0 10h1M3 10h3M27 10h3M32 10h1M0 11h1M3 11h3M27 11h3M32 11h1M0 12h1M3 12h3M27 12h3M32 12h1M0 13h1M4 13h2M27 13h2M32 13h1M0 14h1M4 14h2M27 14h2M32 14h1M0 15h1M32 15h1M0 16h33" />
<path stroke="#616161" d="M4 2h1M27 2h2M27 3h1M3 4h1M27 4h1M3 5h1M27 5h1M3 6h1" />
<path stroke="#404040" d="M5 2h1M4 3h1M28 3h1M4 4h1M28 4h1M4 5h1M28 5h1M4 6h1M27 6h1M3 7h1M27 7h1M3 8h1M7 8h10M27 8h1M3 9h1M27 9h1" />
<path stroke="#dd3f3f" d="M7 10h1M11 10h1M15 10h2M19 10h2M23 10h3M7 11h1M11 11h1M15 11h1M19 11h1" />
<path stroke="#b81414" d="M8 10h1M13 10h1M17 10h1M9 11h1M13 11h1M16 11h1M20 11h2M24 11h1M7 12h1M9 12h1M11 12h1M15 12h1M21 12h1M24 12h1M8 13h1M15 13h1M19 13h1" />
<path stroke="#87050a" d="M13 12h1M9 13h1M12 13h2M16 13h2M20 13h2M24 13h1M8 14h1" />
</svg>